<svg xmlns="http://www.w3.org/2000/svg" width="800" height="140" viewBox="0 0 800 140">
  <defs>
    <filter id="hd" x="-20%" y="-20%" width="140%" height="140%">
      <feTurbulence type="fractalNoise" baseFrequency="0.5" numOctaves="1" result="noise"/>
      <feDisplacementMap in="SourceGraphic" in2="noise" scale="1.5"/>
    </filter>
    <pattern id="dots" x="0" y="0" width="20" height="20" patternUnits="userSpaceOnUse">
      <circle cx="1" cy="1" r="0.8" fill="#2a2a2a" opacity="0.08"/>
    </pattern>
  </defs>

  <!-- Background -->
  <rect width="800" height="140" fill="#fdfbf7"/>
  <rect width="800" height="140" fill="url(#dots)"/>

  <!-- "Hello there!" — Patrick Hand paths, rotated -5deg around (80,42) -->
  <g transform="rotate(-5, 80, 42)" filter="url(#hd)">
    <path d="M33.98 36.255Q35.15 36.45 36.125 36.45Q37.1 36.45 37.37 36.435Q37.34 35.295 37.34 34.245000000000005Q37.34 33.195 37.34 32.82Q37.34 32.445 37.370000000000005 32.3475Q37.4 32.25 37.565 32.16Q37.73 32.07 38.045 32.07Q38.495 32.07 38.495 32.61V37.92Q38.495 39.57 38.42 41.55Q38.405 41.985 37.685 41.985Q37.325 41.985 37.325 41.55L37.385 37.575Q36.905 37.605000000000004 36.072500000000005 37.605000000000004Q35.24 37.605000000000004 33.98 37.425Q33.98 39.405 34.16 41.565Q34.175 41.805 33.95 41.932500000000005Q33.725 42.06 33.3875 42.06Q33.05 42.06 33.02 41.715Q32.825 39.585 32.825 37.515L32.915 32.835Q32.915 32.535 33.14 32.3925Q33.365 32.25 33.62 32.25Q34.04 32.25 34.04 32.655Z M41.74999999999999 35.055Q42.544999999999995 35.055 43.265 35.519999999999996Q43.985 35.985 43.985 36.667500000000004Q43.985 37.35 43.4 37.9875Q42.815 38.625 41.839999999999996 38.76Q41.419999999999995 38.82 40.58 38.82Q40.745 40.095 41.224999999999994 40.5Q41.37499999999999 40.665 41.629999999999995 40.665Q42.559999999999995 40.665 43.19 40.0725Q43.81999999999999 39.48 44.089999999999996 39.48Q44.209999999999994 39.48 44.449999999999996 39.705Q44.69 39.93 44.69 40.125Q44.69 40.515 43.745 41.25Q43.324999999999996 41.595 42.732499999999995 41.8275Q42.13999999999999 42.06 41.629999999999995 42.06Q40.324999999999996 42.06 39.709999999999994 40.38Q39.31999999999999 39.345 39.31999999999999 38.1Q39.31999999999999 36.855000000000004 39.904999999999994 35.955Q40.489999999999995 35.055 41.74999999999999 35.055ZM41.824999999999996 36.09Q41.254999999999995 36.09 40.849999999999994 36.735Q40.699999999999996 36.96 40.565 37.755Q42.665 37.755 42.665 36.72Q42.665 36.09 41.824999999999996 36.09Z M46.16 31.380000000000003Q46.80499999999999 31.380000000000003 46.80499999999999 31.905Q46.80499999999999 32.31 46.7375 34.02Q46.669999999999995 35.730000000000004 46.669999999999995 37.08Q46.669999999999995 38.43 46.77499999999999 39.255Q46.955 40.695 47.285 40.695Q47.614999999999995 40.695 47.779999999999994 40.23Q47.855 40.05 48.019999999999996 39.9075Q48.184999999999995 39.765 48.44 39.765Q48.964999999999996 39.765 48.964999999999996 40.65Q48.964999999999996 41.13 48.44749999999999 41.602500000000006Q47.92999999999999 42.075 47.419999999999995 42.075Q46.91 42.075 46.60249999999999 41.9025Q46.294999999999995 41.73 46.107499999999995 41.385Q45.919999999999995 41.04 45.80749999999999 40.7175Q45.69499999999999 40.395 45.64999999999999 39.93Q45.559999999999995 39.18 45.522499999999994 37.5225Q45.48499999999999 35.865 45.48499999999999 34.3575Q45.48499999999999 32.85 45.522499999999994 32.2875Q45.559999999999995 31.725 45.70249999999999 31.552500000000002Q45.84499999999999 31.380000000000003 46.16 31.380000000000003Z M50.15 31.380000000000003Q50.794999999999995 31.380000000000003 50.794999999999995 31.905Q50.794999999999995 32.31 50.72749999999999 34.02Q50.66 35.730000000000004 50.66 37.08Q50.66 38.43 50.76499999999999 39.255Q50.94499999999999 40.695 51.27499999999999 40.695Q51.605 40.695 51.769999999999996 40.23Q51.845 40.05 52.01 39.9075Q52.175 39.765 52.43 39.765Q52.955 39.765 52.955 40.65Q52.955 41.13 52.4375 41.602500000000006Q51.919999999999995 42.075 51.41 42.075Q50.9 42.075 50.5925 41.9025Q50.285 41.73 50.0975 41.385Q49.91 41.04 49.7975 40.7175Q49.684999999999995 40.395 49.63999999999999 39.93Q49.55 39.18 49.512499999999996 37.5225Q49.474999999999994 35.865 49.474999999999994 34.3575Q49.474999999999994 32.85 49.512499999999996 32.2875Q49.55 31.725 49.692499999999995 31.552500000000002Q49.834999999999994 31.380000000000003 50.15 31.380000000000003Z M56.195 35.01Q57.275 35.01 57.9725 36.045Q58.67 37.08 58.67 38.5275Q58.67 39.975 57.957499999999996 40.995000000000005Q57.245 42.015 56.067499999999995 42.015Q54.89 42.015 54.17 40.9725Q53.449999999999996 39.93 53.449999999999996 38.655Q53.449999999999996 37.02 54.11 36.045Q54.815 35.01 56.195 35.01ZM56.015 36.24Q55.385 36.24 54.98 36.900000000000006Q54.574999999999996 37.56 54.574999999999996 38.295Q54.574999999999996 39.435 55.025 40.035Q55.475 40.635 56.045 40.635Q57.065 40.635 57.35 39.75Q57.47 39.33 57.47 38.7Q57.47 36.24 56.015 36.24Z M63.410000000000004 34.995 64.16 35.01Q64.415 35.01 64.44500000000001 34.995V31.92Q64.46000000000001 31.665 64.7 31.485Q64.94 31.305 65.15 31.305Q65.36 31.305 65.48750000000001 31.44Q65.61500000000001 31.575000000000003 65.60000000000001 31.86Q65.58500000000001 32.144999999999996 65.58500000000001 34.980000000000004L67.34 34.92Q67.79 34.92 67.79 35.445Q67.79 35.835 67.5575 36.03Q67.325 36.225 67.0625 36.24Q66.8 36.255 66.545 36.255L65.63000000000001 36.24Q65.63000000000001 36.855000000000004 65.75750000000001 38.67Q65.885 40.485 65.96000000000001 41.0175Q66.035 41.55 65.99000000000001 41.707499999999996Q65.94500000000001 41.865 65.825 41.925Q65.63000000000001 42.015 65.30000000000001 42.015Q64.97 42.015 64.91 41.655Q64.61 39.69 64.50500000000001 36.255Q64.37 36.27 63.47 36.27Q62.57 36.27 62.57 35.745Q62.57 34.995 63.410000000000004 34.995Z M69.8 37.14 69.92 40.68Q69.92 41.34 69.86 41.445Q69.83 41.715 69.6875 41.865Q69.545 42.015 69.14 42.015Q68.945 42.015 68.82499999999999 41.7675Q68.705 41.52 68.69 41.205Q68.585 38.565 68.4125 36.2475Q68.24 33.93 68.24 31.935000000000002Q68.24 31.62 68.44999999999999 31.439999999999998Q68.66 31.259999999999998 68.945 31.259999999999998Q69.365 31.259999999999998 69.44749999999999 31.98Q69.53 32.7 69.55250000000001 33.78Q69.575 34.86 69.605 35.355000000000004Q70.355 34.965 71.105 34.965Q72.845 34.965 73.31 36.495Q73.58 37.365 73.58 38.73Q73.58 39.18 73.4975 40.1475Q73.415 41.115 73.4 41.400000000000006Q73.385 41.685 73.1525 41.8425Q72.92 42.0 72.65 42.0Q72.23 42.0 72.23 41.55L72.335 38.94Q72.335 38.61 72.305 37.845Q72.275 37.08 71.9975 36.629999999999995Q71.72 36.18 71.03 36.18Q69.8 36.18 69.8 37.14Z M76.655 35.055Q77.45 35.055 78.17 35.519999999999996Q78.89 35.985 78.89 36.667500000000004Q78.89 37.35 78.305 37.9875Q77.72 38.625 76.74499999999999 38.76Q76.325 38.82 75.485 38.82Q75.64999999999999 40.095 76.13 40.5Q76.28 40.665 76.535 40.665Q77.465 40.665 78.095 40.0725Q78.725 39.48 78.99499999999999 39.48Q79.115 39.48 79.35499999999999 39.705Q79.595 39.93 79.595 40.125Q79.595 40.515 78.64999999999999 41.25Q78.22999999999999 41.595 77.63749999999999 41.8275Q77.045 42.06 76.535 42.06Q75.23 42.06 74.615 40.38Q74.225 39.345 74.225 38.1Q74.225 36.855000000000004 74.81 35.955Q75.395 35.055 76.655 35.055ZM76.72999999999999 36.09Q76.16 36.09 75.755 36.735Q75.605 36.96 75.47 37.755Q77.57 37.755 77.57 36.72Q77.57 36.09 76.72999999999999 36.09Z M82.39999999999999 39.81 82.41499999999999 41.355Q82.41499999999999 41.625 82.16749999999999 41.85Q81.92 42.075 81.67999999999999 42.075Q81.335 42.075 81.24499999999999 41.535Q81.22999999999999 41.415 81.125 39.3375Q81.02 37.26 80.72 36.075Q80.585 35.505 80.585 35.4Q80.585 34.905 81.185 34.905Q81.44 34.905 81.59 35.1Q81.74 35.295 81.7775 35.4975Q81.815 35.7 81.845 36.045Q81.875 36.39 81.89 36.480000000000004Q82.205 35.730000000000004 82.835 35.355000000000004Q83.46499999999999 34.980000000000004 84.215 34.980000000000004Q85.445 34.980000000000004 85.445 35.61Q85.445 35.925 85.22749999999999 36.1125Q85.00999999999999 36.3 84.725 36.3Q83.44999999999999 36.3 82.92499999999998 37.11Q82.39999999999999 37.92 82.39999999999999 39.81Z M88.4 35.055Q89.19500000000001 35.055 89.915 35.519999999999996Q90.635 35.985 90.635 36.667500000000004Q90.635 37.35 90.05000000000001 37.9875Q89.465 38.625 88.49 38.76Q88.07000000000001 38.82 87.23 38.82Q87.395 40.095 87.875 40.5Q88.025 40.665 88.28 40.665Q89.21000000000001 40.665 89.84 40.0725Q90.47 39.48 90.74 39.48Q90.86 39.48 91.1 39.705Q91.34 39.93 91.34 40.125Q91.34 40.515 90.395 41.25Q89.975 41.595 89.3825 41.8275Q88.79 42.06 88.28 42.06Q86.97500000000001 42.06 86.36 40.38Q85.97 39.345 85.97 38.1Q85.97 36.855000000000004 86.555 35.955Q87.14 35.055 88.4 35.055ZM88.475 36.09Q87.905 36.09 87.5 36.735Q87.35000000000001 36.96 87.215 37.755Q89.315 37.755 89.315 36.72Q89.315 36.09 88.475 36.09Z M94.1 31.68 93.965 36.795Q93.965 37.62 93.98 37.875Q93.92 38.07 93.7475 38.22Q93.575 38.37 93.36500000000001 38.37Q93.155 38.37 93.02 38.04Q92.795 34.26 92.795 31.68Q92.93 31.305 93.48500000000001 31.305Q94.04 31.305 94.1 31.68ZM94.28 40.74Q94.28 41.535 93.62 41.535Q93.29 41.535 93.065 41.272499999999994Q92.84 41.01 92.84 40.739999999999995Q92.84 40.47 93.05000000000001 40.245000000000005Q93.26 40.02 93.61250000000001 40.02Q93.965 40.02 94.1225 40.155Q94.28 40.29 94.28 40.74Z" fill="#ff4d8d"/>
  </g>

  <!-- Curved arrow -->
  <path d="M118 38 Q148 30, 158 52" stroke="#ff4d8d" stroke-width="1.8"
        fill="none" stroke-linecap="round" filter="url(#hd)"/>
  <path d="M151 56 L158 52 L153 45" stroke="#ff4d8d" stroke-width="1.8"
        fill="none" stroke-linecap="round" stroke-linejoin="round" filter="url(#hd)"/>

  <!-- "Tejas Tank" — Playfair Display Bold paths -->
  <path d="M63.384 59.184000000000005Q63.176 61.836 63.098 64.28Q63.019999999999996 66.724 63.019999999999996 68.024Q63.019999999999996 69.168 63.071999999999996 70.208Q63.123999999999995 71.248 63.176 71.976H61.98Q61.147999999999996 67.608 59.873999999999995 65.06Q58.599999999999994 62.512 56.831999999999994 61.446Q55.064 60.38 52.672 60.38H51.476V90.072Q51.476 92.152 51.918 93.19200000000001Q52.36 94.232 53.556 94.57Q54.751999999999995 94.908 57.04 94.96V96.0Q55.428 95.948 52.75 95.89599999999999Q50.072 95.844 47.16 95.844Q44.3 95.844 41.751999999999995 95.89599999999999Q39.204 95.948 37.644 96.0V94.96Q39.984 94.908 41.18 94.57Q42.376 94.232 42.792 93.19200000000001Q43.208 92.152 43.208 90.072V60.38H42.064Q39.672 60.38 37.903999999999996 61.446Q36.136 62.512 34.888000000000005 65.03399999999999Q33.64 67.556 32.704 71.976H31.508Q31.612 71.248 31.637999999999998 70.208Q31.664 69.168 31.664 68.024Q31.664 66.724 31.586 64.28Q31.508 61.836 31.3 59.184000000000005Q33.692 59.236000000000004 36.525999999999996 59.288000000000004Q39.36 59.34 42.22 59.34Q45.08 59.34 47.367999999999995 59.34Q49.708 59.34 52.542 59.34Q55.376 59.34 58.236000000000004 59.288000000000004Q61.096000000000004 59.236000000000004 63.384 59.184000000000005Z M79.39999999999999 68.388Q83.97599999999998 68.388 86.576 71.092Q89.17599999999999 73.79599999999999 89.17599999999999 79.932H72.06799999999998L71.96399999999998 78.944H82.624Q82.67599999999999 76.396 82.31199999999998 74.238Q81.948 72.08 81.16799999999999 70.78Q80.38799999999999 69.48 79.088 69.48Q77.26799999999999 69.48 75.99399999999999 71.768Q74.71999999999998 74.056 74.46 79.36L74.61599999999999 79.672Q74.564 80.296 74.53799999999998 80.97200000000001Q74.51199999999999 81.648 74.51199999999999 82.376Q74.51199999999999 85.964 75.52599999999998 88.2Q76.53999999999999 90.436 78.1 91.45Q79.66 92.464 81.27199999999999 92.464Q82.36399999999999 92.464 83.53399999999999 92.126Q84.704 91.788 85.89999999999999 90.878Q87.09599999999999 89.968 88.136 88.304L89.07199999999999 88.616Q88.448 90.592 87.09599999999999 92.464Q85.74399999999999 94.336 83.66399999999999 95.532Q81.58399999999999 96.728 78.672 96.728Q75.136 96.728 72.43199999999999 95.22Q69.728 93.712 68.19399999999999 90.644Q66.66 87.576 66.66 82.844Q66.66 78.008 68.298 74.78399999999999Q69.93599999999999 71.56 72.82199999999999 69.974Q75.70799999999998 68.388 79.39999999999999 68.388Z M89.74799999999999 105.776V104.84Q92.29599999999999 104.788 93.80399999999999 102.838Q95.31199999999998 100.888 95.31199999999998 96.936V74.784Q95.31199999999998 72.444 94.58399999999999 71.326Q93.856 70.208 91.984 70.208V69.116Q93.64799999999998 69.272 95.20799999999998 69.272Q97.33999999999999 69.272 99.26399999999998 69.09Q101.18799999999999 68.908 102.79999999999998 68.544V91.112Q102.79999999999998 93.972 102.43599999999998 96.156Q102.07199999999999 98.34 101.23999999999998 100.004Q100.40799999999999 101.668 99.05599999999998 102.968Q97.75599999999999 104.216 95.49399999999999 104.996Q93.23199999999999 105.776 89.74799999999999 105.776ZM98.48399999999998 55.7Q100.66799999999998 55.7 101.94199999999998 56.766000000000005Q103.21599999999998 57.832 103.21599999999998 59.704Q103.21599999999998 61.576 101.94199999999998 62.641999999999996Q100.66799999999998 63.708 98.48399999999998 63.708Q96.29999999999998 63.708 95.02599999999998 62.641999999999996Q93.75199999999998 61.576 93.75199999999998 59.704Q93.75199999999998 57.832 95.02599999999998 56.766000000000005Q96.29999999999998 55.7 98.48399999999998 55.7Z M114.81199999999998 96.364Q112.472 96.364 110.91199999999999 95.48Q109.35199999999999 94.596 108.624 93.114Q107.89599999999999 91.632 107.89599999999999 89.864Q107.89599999999999 87.628 108.91 86.22399999999999Q109.92399999999999 84.82 111.536 83.936Q113.148 83.052 114.942 82.48Q116.73599999999999 81.908 118.374 81.362Q120.01199999999999 80.816 121.02599999999998 80.062Q122.03999999999999 79.30799999999999 122.03999999999999 78.112V74.056Q122.03999999999999 72.70400000000001 121.59799999999998 71.638Q121.15599999999999 70.572 120.24599999999998 70.0Q119.33599999999998 69.428 117.88 69.428Q116.83999999999999 69.428 115.79999999999998 69.714Q114.75999999999999 70.0 114.08399999999999 70.676Q115.53999999999999 71.196 116.34599999999999 72.262Q117.15199999999999 73.328 117.15199999999999 74.68Q117.15199999999999 76.44800000000001 115.92999999999999 77.488Q114.708 78.528 113.044 78.528Q111.172 78.528 110.21 77.358Q109.24799999999999 76.188 109.24799999999999 74.524Q109.24799999999999 73.016 110.00199999999998 72.028Q110.75599999999999 71.04 112.10799999999999 70.156Q113.564 69.324 115.618 68.856Q117.672 68.388 120.064 68.388Q122.45599999999999 68.388 124.38 68.882Q126.30399999999999 69.376 127.60399999999998 70.676Q128.79999999999998 71.872 129.164 73.614Q129.528 75.356 129.528 78.008V92.152Q129.528 93.452 129.788 93.946Q130.048 94.44 130.672 94.44Q131.14 94.44 131.582 94.18Q132.024 93.92 132.54399999999998 93.556L133.064 94.44Q131.97199999999998 95.376 130.54199999999997 95.87Q129.112 96.364 127.344 96.364Q125.41999999999999 96.364 124.27599999999998 95.81800000000001Q123.13199999999999 95.272 122.63799999999999 94.33600000000001Q122.14399999999999 93.4 122.14399999999999 92.152Q120.89599999999999 94.128 119.12799999999999 95.24600000000001Q117.35999999999999 96.364 114.81199999999998 96.364ZM118.50399999999999 93.036Q119.54399999999998 93.036 120.40199999999999 92.542Q121.25999999999999 92.048 122.03999999999999 90.904V80.244Q121.57199999999999 81.024 120.73999999999998 81.648Q119.90799999999999 82.272 118.97199999999998 82.922Q118.03599999999999 83.572 117.178 84.352Q116.32 85.132 115.79999999999998 86.27600000000001Q115.27999999999999 87.42 115.27999999999999 89.032Q115.27999999999999 91.06 116.16399999999999 92.048Q117.04799999999999 93.036 118.50399999999999 93.036Z M144.868 68.388Q147.052 68.388 148.69 68.934Q150.32799999999997 69.48 151.05599999999998 70.0Q152.82399999999998 71.196 153.23999999999998 68.44H154.332Q154.22799999999998 69.896 154.176 72.00200000000001Q154.124 74.108 154.124 77.592H153.03199999999998Q152.772 75.668 152.04399999999998 73.796Q151.31599999999997 71.924 149.938 70.72800000000001Q148.55999999999997 69.532 146.37599999999998 69.532Q144.868 69.532 143.82799999999997 70.39Q142.78799999999998 71.248 142.78799999999998 72.86Q142.78799999999998 74.42 143.724 75.59Q144.66 76.76 146.142 77.826Q147.624 78.892 149.236 80.088Q150.952 81.388 152.356 82.662Q153.76 83.936 154.59199999999998 85.444Q155.42399999999998 86.952 155.42399999999998 89.032Q155.42399999999998 91.372 154.07199999999997 93.114Q152.71999999999997 94.856 150.51 95.792Q148.29999999999998 96.728 145.59599999999998 96.728Q144.03599999999997 96.728 142.81399999999996 96.416Q141.59199999999998 96.104 140.70799999999997 95.636Q140.03199999999998 95.324 139.43399999999997 95.038Q138.83599999999998 94.752 138.31599999999997 94.544Q137.796 94.388 137.406 94.908Q137.016 95.428 136.808 96.364H135.71599999999998Q135.82 94.7 135.87199999999999 92.30799999999999Q135.92399999999998 89.916 135.92399999999998 85.964H137.016Q137.32799999999997 88.772 138.15999999999997 90.93Q138.992 93.088 140.42199999999997 94.31Q141.85199999999998 95.532 144.03599999999997 95.532Q144.92 95.532 145.75199999999998 95.168Q146.58399999999997 94.804 147.13 93.97200000000001Q147.676 93.14 147.676 91.84Q147.676 89.552 146.194 88.04400000000001Q144.712 86.536 142.42399999999998 84.768Q140.76 83.416 139.278 82.09Q137.796 80.764 136.85999999999999 79.178Q135.92399999999998 77.592 135.92399999999998 75.564Q135.92399999999998 73.224 137.17199999999997 71.612Q138.42 70.0 140.474 69.194Q142.528 68.388 144.868 68.388Z M202.848 59.184000000000005Q202.64 61.836 202.56199999999998 64.28Q202.48399999999998 66.724 202.48399999999998 68.024Q202.48399999999998 69.168 202.536 70.208Q202.588 71.248 202.64 71.976H201.444Q200.612 67.608 199.338 65.06Q198.064 62.512 196.296 61.446Q194.528 60.38 192.136 60.38H190.94V90.072Q190.94 92.152 191.382 93.19200000000001Q191.824 94.232 193.02 94.57Q194.216 94.908 196.504 94.96V96.0Q194.892 95.948 192.214 95.89599999999999Q189.536 95.844 186.624 95.844Q183.764 95.844 181.216 95.89599999999999Q178.668 95.948 177.108 96.0V94.96Q179.448 94.908 180.644 94.57Q181.84 94.232 182.256 93.19200000000001Q182.672 92.152 182.672 90.072V60.38H181.528Q179.136 60.38 177.368 61.446Q175.6 62.512 174.35199999999998 65.03399999999999Q173.10399999999998 67.556 172.168 71.976H170.972Q171.076 71.248 171.10199999999998 70.208Q171.128 69.168 171.128 68.024Q171.128 66.724 171.05 64.28Q170.972 61.836 170.764 59.184000000000005Q173.156 59.236000000000004 175.99 59.288000000000004Q178.824 59.34 181.68400000000003 59.34Q184.544 59.34 186.832 59.34Q189.172 59.34 192.006 59.34Q194.84 59.34 197.7 59.288000000000004Q200.56 59.236000000000004 202.848 59.184000000000005Z M212.624 96.364Q210.284 96.364 208.724 95.48Q207.164 94.596 206.43599999999998 93.114Q205.708 91.632 205.708 89.864Q205.708 87.628 206.72199999999998 86.22399999999999Q207.736 84.82 209.34799999999998 83.936Q210.95999999999998 83.052 212.754 82.48Q214.548 81.908 216.18599999999998 81.362Q217.82399999999998 80.816 218.83799999999997 80.062Q219.85199999999998 79.30799999999999 219.85199999999998 78.112V74.056Q219.85199999999998 72.70400000000001 219.40999999999997 71.638Q218.968 70.572 218.058 70.0Q217.148 69.428 215.69199999999998 69.428Q214.652 69.428 213.612 69.714Q212.572 70.0 211.896 70.676Q213.35199999999998 71.196 214.158 72.262Q214.964 73.328 214.964 74.68Q214.964 76.44800000000001 213.742 77.488Q212.51999999999998 78.528 210.856 78.528Q208.98399999999998 78.528 208.022 77.358Q207.06 76.188 207.06 74.524Q207.06 73.016 207.814 72.028Q208.56799999999998 71.04 209.92 70.156Q211.37599999999998 69.324 213.42999999999998 68.856Q215.48399999999998 68.388 217.87599999999998 68.388Q220.26799999999997 68.388 222.19199999999998 68.882Q224.11599999999999 69.376 225.416 70.676Q226.612 71.872 226.976 73.614Q227.33999999999997 75.356 227.33999999999997 78.008V92.152Q227.33999999999997 93.452 227.59999999999997 93.946Q227.85999999999999 94.44 228.48399999999998 94.44Q228.952 94.44 229.394 94.18Q229.83599999999998 93.92 230.356 93.556L230.87599999999998 94.44Q229.784 95.376 228.35399999999998 95.87Q226.92399999999998 96.364 225.15599999999998 96.364Q223.232 96.364 222.088 95.81800000000001Q220.944 95.272 220.45 94.33600000000001Q219.956 93.4 219.956 92.152Q218.708 94.128 216.94 95.24600000000001Q215.172 96.364 212.624 96.364ZM216.31599999999997 93.036Q217.356 93.036 218.214 92.542Q219.072 92.048 219.85199999999998 90.904V80.244Q219.384 81.024 218.552 81.648Q217.72 82.272 216.784 82.922Q215.84799999999998 83.572 214.98999999999998 84.352Q214.13199999999998 85.132 213.61199999999997 86.27600000000001Q213.09199999999998 87.42 213.09199999999998 89.032Q213.09199999999998 91.06 213.976 92.048Q214.85999999999999 93.036 216.31599999999997 93.036Z M251.728 68.388Q253.912 68.388 255.29000000000002 68.934Q256.668 69.48 257.448 70.416Q258.28 71.404 258.66999999999996 72.964Q259.06 74.524 259.06 77.176V91.164Q259.06 93.348 259.81399999999996 94.128Q260.568 94.908 262.388 94.908V96.0Q261.4 95.948 259.424 95.87Q257.448 95.792 255.524 95.792Q253.548 95.792 251.65 95.87Q249.752 95.948 248.764 96.0V94.908Q250.32399999999998 94.908 250.94799999999998 94.128Q251.572 93.348 251.572 91.164V74.992Q251.572 73.69200000000001 251.312 72.73Q251.052 71.768 250.37599999999998 71.22200000000001Q249.7 70.676 248.34799999999998 70.676Q246.944 70.676 245.774 71.456Q244.60399999999998 72.236 243.902 73.614Q243.2 74.992 243.2 76.708V91.164Q243.2 93.348 243.85 94.128Q244.5 94.908 246.00799999999998 94.908V96.0Q245.072 95.948 243.278 95.87Q241.48399999999998 95.792 239.56 95.792Q237.584 95.792 235.50400000000002 95.87Q233.424 95.948 232.384 96.0V94.908Q234.204 94.908 234.958 94.128Q235.712 93.348 235.712 91.164V74.784Q235.712 72.444 235.01 71.326Q234.308 70.208 232.384 70.208V69.116Q234.048 69.272 235.608 69.272Q237.792 69.272 239.69 69.09Q241.588 68.908 243.2 68.544V73.224Q244.5 70.572 246.736 69.48Q248.97199999999998 68.388 251.728 68.388Z M274.86799999999994 55.284V91.164Q274.86799999999994 93.348 275.56999999999994 94.128Q276.272 94.908 277.98799999999994 94.908V96.0Q276.99999999999994 95.948 275.102 95.87Q273.20399999999995 95.792 271.22799999999995 95.792Q269.2 95.792 267.14599999999996 95.87Q265.092 95.948 264.05199999999996 96.0V94.908Q265.87199999999996 94.908 266.626 94.128Q267.37999999999994 93.348 267.37999999999994 91.164V61.524Q267.37999999999994 59.184000000000005 266.67799999999994 58.066Q265.97599999999994 56.948 264.05199999999996 56.948V55.856Q265.71599999999995 56.012 267.27599999999995 56.012Q269.40799999999996 56.012 271.332 55.83Q273.256 55.648 274.86799999999994 55.284ZM291.81999999999994 69.116V70.156Q290.20799999999997 70.468 288.596 71.50800000000001Q286.984 72.548 285.31999999999994 74.16L281.316 78.32L281.83599999999996 77.332L290.72799999999995 92.204Q291.29999999999995 93.14 291.924 93.868Q292.54799999999994 94.596 293.43199999999996 94.908V96.0Q292.652 95.948 291.092 95.87Q289.532 95.792 287.972 95.792Q286.04799999999994 95.792 284.12399999999997 95.87Q282.2 95.948 281.26399999999995 96.0V94.908Q282.304 94.908 282.668 94.414Q283.032 93.92 282.56399999999996 93.14L277.41599999999994 83.832Q276.792 82.844 276.19399999999996 82.55799999999999Q275.59599999999995 82.272 274.60799999999995 82.22V81.232Q275.7 81.128 276.506 80.868Q277.31199999999995 80.608 277.98799999999994 79.88L281.93999999999994 76.032Q283.70799999999997 74.368 283.70799999999997 73.068Q283.70799999999997 71.768 282.59 70.988Q281.472 70.208 279.652 70.156V69.116Q281.10799999999995 69.168 282.82399999999996 69.22Q284.53999999999996 69.272 285.736 69.272Q286.77599999999995 69.272 287.94599999999997 69.24600000000001Q289.116 69.22 290.15599999999995 69.194Q291.19599999999997 69.168 291.81999999999994 69.116Z" fill="#2a2a2a"/>

  <!-- "Architecting scalable infrastructures!" — Patrick Hand paths -->
  <path d="M36.403 110.797Q36.828 110.797 37.117000000000004 111.17099999999999Q37.406 111.545 37.865 112.718Q38.936 115.489 39.956 121.405Q39.973 121.473 39.973 121.6005Q39.973 121.728 39.811499999999995 121.8725Q39.65 122.017 39.3525 122.017Q39.055 122.017 38.851 121.8725Q38.647 121.728 38.579 121.3965Q38.511 121.065 38.324 120.096Q37.916 117.937 37.78 117.852Q37.576 117.733 36.4285 117.59700000000001Q35.281 117.461 34.907 117.461Q34.533 117.461 34.465 117.529Q34.159 117.801 33.632 121.66Q33.564 121.983 32.986000000000004 121.983Q32.408 121.983 32.408 121.49Q32.408 120.266 33.309 116.815Q34.21 113.364 34.805 112.242Q35.553 110.797 36.403 110.797ZM36.335 112.684Q36.08 112.684 35.451 114.1885Q34.822 115.693 34.822 116.05Q34.822 116.135 34.856 116.169Q34.992 116.305 35.927 116.40700000000001Q36.862 116.509 37.168000000000006 116.509Q37.474000000000004 116.509 37.508 116.4665Q37.542 116.424 37.542 116.1945Q37.542 115.965 37.083 114.3245Q36.624 112.684 36.335 112.684Z M43.135 119.518 43.152 121.269Q43.152 121.575 42.8715 121.83Q42.591 122.085 42.319 122.085Q41.928 122.085 41.826 121.473Q41.809 121.337 41.69 118.9825Q41.571 116.628 41.231 115.285Q41.078 114.639 41.078 114.52Q41.078 113.959 41.758 113.959Q42.047 113.959 42.217 114.18Q42.387 114.401 42.429500000000004 114.6305Q42.472 114.86 42.506 115.251Q42.54 115.642 42.557 115.744Q42.914 114.894 43.628 114.469Q44.342 114.044 45.192 114.044Q46.586 114.044 46.586 114.758Q46.586 115.115 46.3395 115.32749999999999Q46.093 115.53999999999999 45.769999999999996 115.53999999999999Q44.325 115.53999999999999 43.730000000000004 116.458Q43.135 117.376 43.135 119.518Z M52.451 115.897Q52.332 115.897 51.7965 115.70150000000001Q51.261 115.506 51.108000000000004 115.506Q50.122 115.506 49.425 116.2285Q48.728 116.951 48.728 118.14099999999999Q48.728 119.331 49.1105 119.9175Q49.493 120.504 50.428000000000004 120.504Q50.802 120.504 51.7115 120.07050000000001Q52.621 119.637 52.842 119.637Q53.063 119.637 53.199 119.773Q53.335 119.909 53.335 120.113Q53.335 120.521 52.816500000000005 120.97149999999999Q52.298 121.422 51.533 121.7195Q50.768 122.017 50.156 122.017Q48.796 122.017 48.0225 120.946Q47.249 119.875 47.249 118.022Q47.249 116.883 47.852500000000006 115.94800000000001Q48.456 115.013 49.391000000000005 114.5455Q50.326 114.078 51.21 114.078Q52.094 114.078 52.6295 114.29050000000001Q53.165 114.503 53.165 114.8515Q53.165 115.2 52.9695 115.5485Q52.774 115.897 52.451 115.897Z M55.902 116.492 56.038 120.504Q56.038 121.252 55.97 121.371Q55.936 121.677 55.7745 121.84700000000001Q55.613 122.017 55.153999999999996 122.017Q54.933 122.017 54.797 121.7365Q54.661 121.456 54.644 121.099Q54.525 118.107 54.329499999999996 115.4805Q54.134 112.854 54.134 110.593Q54.134 110.236 54.372 110.03200000000001Q54.61 109.828 54.933 109.828Q55.409 109.828 55.5025 110.644Q55.596 111.46 55.6215 112.684Q55.647 113.908 55.681 114.469Q56.531 114.027 57.381 114.027Q59.352999999999994 114.027 59.879999999999995 115.761Q60.186 116.747 60.186 118.294Q60.186 118.804 60.0925 119.9005Q59.998999999999995 120.997 59.982 121.32Q59.964999999999996 121.643 59.701499999999996 121.8215Q59.437999999999995 122.0 59.132 122.0Q58.656 122.0 58.656 121.49L58.775 118.532Q58.775 118.158 58.741 117.291Q58.707 116.424 58.3925 115.914Q58.077999999999996 115.404 57.296 115.404Q55.902 115.404 55.902 116.492Z M62.345 111.256Q62.650999999999996 111.256 62.923 111.545Q63.195 111.834 63.195 112.1485Q63.195 112.463 62.8975 112.786Q62.6 113.109 62.277 113.109Q61.954 113.109 61.6905 112.83699999999999Q61.427 112.565 61.427 112.14Q61.427 111.324 62.311 111.256Q62.327999999999996 111.256 62.345 111.256ZM63.059 120.164 63.076 121.354Q63.076 121.677 62.821 121.8895Q62.565999999999995 122.102 62.277 122.102Q61.852 122.102 61.835 121.677Q61.614 116.254 61.614 115.676Q61.614 115.098 61.665 114.265Q61.699 113.959 62.056 113.959Q62.957 113.959 63.076 114.69Q63.126999999999995 115.064 63.126999999999995 115.285L63.059 116.356Z M65.456 114.06099999999999 66.30600000000001 114.078Q66.595 114.078 66.629 114.06099999999999V110.576Q66.646 110.287 66.918 110.083Q67.19000000000001 109.879 67.42800000000001 109.879Q67.66600000000001 109.879 67.81050000000002 110.03200000000001Q67.95500000000001 110.185 67.93800000000002 110.50800000000001Q67.921 110.831 67.921 114.044L69.91000000000001 113.976Q70.42 113.976 70.42 114.571Q70.42 115.013 70.1565 115.23400000000001Q69.893 115.455 69.5955 115.47200000000001Q69.298 115.489 69.009 115.489L67.97200000000001 115.472Q67.97200000000001 116.169 68.1165 118.226Q68.26100000000001 120.283 68.346 120.8865Q68.43100000000001 121.49 68.38000000000001 121.6685Q68.32900000000001 121.847 68.19300000000001 121.915Q67.97200000000001 122.017 67.59800000000001 122.017Q67.224 122.017 67.156 121.609Q66.816 119.382 66.697 115.489Q66.54400000000001 115.506 65.524 115.506Q64.504 115.506 64.504 114.911Q64.504 114.06099999999999 65.456 114.06099999999999Z M73.327 114.129Q74.22800000000001 114.129 75.04400000000001 114.656Q75.86 115.18299999999999 75.86 115.9565Q75.86 116.73 75.197 117.4525Q74.534 118.175 73.429 118.328Q72.953 118.396 72.001 118.396Q72.188 119.841 72.732 120.3Q72.902 120.487 73.191 120.487Q74.245 120.487 74.959 119.8155Q75.673 119.144 75.979 119.144Q76.11500000000001 119.144 76.387 119.399Q76.659 119.654 76.659 119.875Q76.659 120.317 75.58800000000001 121.15Q75.11200000000001 121.541 74.44050000000001 121.80449999999999Q73.769 122.068 73.191 122.068Q71.712 122.068 71.015 120.164Q70.57300000000001 118.991 70.57300000000001 117.58Q70.57300000000001 116.169 71.236 115.149Q71.899 114.129 73.327 114.129ZM73.412 115.30199999999999Q72.766 115.30199999999999 72.307 116.033Q72.137 116.288 71.98400000000001 117.189Q74.364 117.189 74.364 116.016Q74.364 115.30199999999999 73.412 115.30199999999999Z M82.60900000000001 115.897Q82.49000000000001 115.897 81.95450000000001 115.70150000000001Q81.41900000000001 115.506 81.266 115.506Q80.28000000000002 115.506 79.58300000000001 116.2285Q78.88600000000001 116.951 78.88600000000001 118.14099999999999Q78.88600000000001 119.331 79.26850000000002 119.9175Q79.65100000000001 120.504 80.58600000000001 120.504Q80.96000000000001 120.504 81.86950000000002 120.07050000000001Q82.77900000000001 119.637 83.0 119.637Q83.221 119.637 83.357 119.773Q83.49300000000001 119.909 83.49300000000001 120.113Q83.49300000000001 120.521 82.9745 120.97149999999999Q82.45600000000002 121.422 81.69100000000002 121.7195Q80.92600000000002 122.017 80.31400000000001 122.017Q78.95400000000001 122.017 78.18050000000001 120.946Q77.40700000000001 119.875 77.40700000000001 118.022Q77.40700000000001 116.883 78.01050000000001 115.94800000000001Q78.614 115.013 79.549 114.5455Q80.48400000000001 114.078 81.36800000000001 114.078Q82.25200000000001 114.078 82.78750000000001 114.29050000000001Q83.32300000000001 114.503 83.32300000000001 114.8515Q83.32300000000001 115.2 83.12750000000001 115.5485Q82.93200000000002 115.897 82.60900000000001 115.897Z M84.66600000000001 114.06099999999999 85.51600000000002 114.078Q85.805 114.078 85.83900000000001 114.06099999999999V110.576Q85.85600000000001 110.287 86.12800000000001 110.083Q86.40000000000002 109.879 86.63800000000002 109.879Q86.87600000000002 109.879 87.02050000000003 110.03200000000001Q87.16500000000002 110.185 87.14800000000002 110.50800000000001Q87.13100000000001 110.831 87.13100000000001 114.044L89.12000000000002 113.976Q89.63000000000001 113.976 89.63000000000001 114.571Q89.63000000000001 115.013 89.3665 115.23400000000001Q89.10300000000001 115.455 88.80550000000001 115.47200000000001Q88.50800000000001 115.489 88.21900000000001 115.489L87.18200000000002 115.472Q87.18200000000002 116.169 87.32650000000001 118.226Q87.47100000000002 120.283 87.55600000000001 120.8865Q87.64100000000002 121.49 87.59000000000002 121.6685Q87.53900000000002 121.847 87.40300000000002 121.915Q87.18200000000002 122.017 86.80800000000002 122.017Q86.43400000000001 122.017 86.36600000000001 121.609Q86.02600000000001 119.382 85.90700000000001 115.489Q85.75400000000002 115.506 84.73400000000001 115.506Q83.71400000000001 115.506 83.71400000000001 114.911Q83.71400000000001 114.06099999999999 84.66600000000001 114.06099999999999Z M91.21100000000001 111.256Q91.51700000000001 111.256 91.78900000000002 111.545Q92.061 111.834 92.061 112.1485Q92.061 112.463 91.76350000000001 112.786Q91.46600000000001 113.109 91.143 113.109Q90.82000000000001 113.109 90.5565 112.83699999999999Q90.293 112.565 90.293 112.14Q90.293 111.324 91.177 111.256Q91.19400000000002 111.256 91.21100000000001 111.256ZM91.92500000000001 120.164 91.94200000000001 121.354Q91.94200000000001 121.677 91.68700000000001 121.8895Q91.43200000000002 122.102 91.14300000000001 122.102Q90.71800000000002 122.102 90.70100000000001 121.677Q90.48000000000002 116.254 90.48000000000002 115.676Q90.48000000000002 115.098 90.531 114.265Q90.56500000000001 113.959 90.92200000000001 113.959Q91.82300000000001 113.959 91.94200000000001 114.69Q91.99300000000001 115.064 91.99300000000001 115.285L91.92500000000001 116.356Z M94.54300000000002 121.473 94.35600000000002 114.571Q94.35600000000002 114.248 94.57700000000003 114.04400000000001Q94.79800000000002 113.84 95.01900000000002 113.84Q95.56300000000002 113.84 95.64800000000002 114.299Q95.71600000000002 114.758 95.71600000000002 115.251Q96.63400000000001 114.044 98.01100000000002 114.044Q100.11900000000001 114.044 100.11900000000001 118.855Q100.11900000000001 119.297 100.11900000000001 120.1895Q100.11900000000001 121.082 100.01700000000002 121.49Q99.89800000000002 122.0 99.28600000000002 122.0Q98.87800000000001 122.0 98.87800000000001 121.456L98.89500000000002 120.504Q98.89500000000002 118.532 98.76750000000001 117.8095Q98.64000000000001 117.087 98.52100000000002 116.662Q98.23200000000001 115.744 97.58600000000001 115.744Q96.73600000000002 115.744 96.39600000000002 116.356Q96.02200000000002 117.019 95.95400000000002 117.92Q95.83500000000002 119.501 95.83500000000002 121.269Q95.83500000000002 121.609 95.58000000000001 121.81299999999999Q95.32500000000002 122.017 94.96800000000002 122.017Q94.54300000000002 122.017 94.54300000000002 121.473Z M106.46000000000002 121.303Q105.84800000000001 122.017 104.91300000000001 122.017Q103.97800000000002 122.017 103.29800000000002 121.439Q101.87000000000002 120.334 101.87000000000002 118.056Q101.87000000000002 116.271 102.85600000000002 115.19149999999999Q103.84200000000001 114.112 105.287 114.112Q106.73200000000001 114.112 107.25900000000001 115.098Q107.71800000000002 115.965 107.71800000000002 117.716L107.68400000000001 119.11Q107.68400000000001 120.096 107.77750000000002 121.83850000000001Q107.87100000000002 123.581 107.87100000000002 124.465Q107.87100000000002 125.927 107.14850000000001 126.6155Q106.42600000000002 127.304 104.94700000000002 127.304Q104.06300000000002 127.304 103.14500000000001 126.93Q102.22700000000002 126.556 102.22700000000002 126.063Q102.22700000000002 125.706 102.42250000000001 125.519Q102.61800000000002 125.332 102.87300000000002 125.332Q103.12800000000001 125.332 104.02050000000001 125.70599999999999Q104.91300000000001 126.08 105.30400000000002 126.08Q106.52800000000002 126.08 106.52800000000002 124.074Q106.52800000000002 122.068 106.46000000000002 121.303ZM106.23900000000002 119.586Q106.44300000000001 118.94 106.44300000000001 117.7075Q106.44300000000001 116.475 106.07750000000001 115.9735Q105.71200000000002 115.472 104.93 115.472Q104.14800000000001 115.472 103.67200000000001 116.186Q103.19600000000001 116.9 103.19600000000001 117.9965Q103.19600000000001 119.093 103.64650000000002 119.739Q104.09700000000002 120.385 105.03200000000001 120.385Q105.96700000000001 120.385 106.23900000000002 119.586Z M118.394 115.268Q118.394 115.557 118.173 115.727Q117.95200000000001 115.897 117.79050000000001 115.897Q117.629 115.897 117.53550000000001 115.8885Q117.44200000000001 115.88 116.8555 115.574Q116.269 115.268 115.77600000000001 115.268Q115.28300000000002 115.268 114.93450000000001 115.5145Q114.58600000000001 115.761 114.58600000000001 116.237Q114.58600000000001 116.713 114.9855 116.985Q115.385 117.257 116.388 117.4525Q117.391 117.648 117.9265 118.005Q118.46200000000002 118.362 118.46200000000002 119.331Q118.46200000000002 120.742 117.72250000000001 121.3285Q116.983 121.915 115.929 121.915Q114.87500000000001 121.915 114.13550000000001 121.626Q113.39600000000002 121.337 113.39600000000002 120.759Q113.39600000000002 120.096 114.05900000000001 120.096Q114.22900000000001 120.096 114.80700000000002 120.334Q115.385 120.572 115.95450000000001 120.572Q116.52400000000002 120.572 116.82150000000001 120.2065Q117.11900000000001 119.841 117.11900000000001 119.365Q117.11900000000001 118.889 116.72800000000001 118.6765Q116.33700000000002 118.464 115.53800000000001 118.328Q114.739 118.192 114.36500000000001 118.039Q113.34500000000001 117.631 113.34500000000001 116.22Q113.34500000000001 115.217 114.05900000000001 114.622Q114.77300000000001 114.027 115.71650000000001 114.027Q116.66000000000001 114.027 117.52700000000002 114.36699999999999Q118.394 114.707 118.394 115.268Z M124.56500000000001 115.897Q124.44600000000001 115.897 123.91050000000001 115.70150000000001Q123.37500000000001 115.506 123.22200000000001 115.506Q122.23600000000002 115.506 121.53900000000002 116.2285Q120.84200000000001 116.951 120.84200000000001 118.14099999999999Q120.84200000000001 119.331 121.2245 119.9175Q121.60700000000001 120.504 122.54200000000002 120.504Q122.91600000000001 120.504 123.8255 120.07050000000001Q124.73500000000001 119.637 124.95600000000002 119.637Q125.177 119.637 125.31300000000002 119.773Q125.44900000000001 119.909 125.44900000000001 120.113Q125.44900000000001 120.521 124.93050000000001 120.97149999999999Q124.412 121.422 123.64700000000002 121.7195Q122.88200000000002 122.017 122.27000000000001 122.017Q120.91000000000001 122.017 120.13650000000001 120.946Q119.36300000000001 119.875 119.36300000000001 118.022Q119.36300000000001 116.883 119.96650000000001 115.94800000000001Q120.57000000000001 115.013 121.50500000000001 114.5455Q122.44000000000001 114.078 123.32400000000001 114.078Q124.20800000000001 114.078 124.74350000000001 114.29050000000001Q125.27900000000001 114.503 125.27900000000001 114.8515Q125.27900000000001 115.2 125.08350000000002 115.5485Q124.88800000000002 115.897 124.56500000000001 115.897Z M130.94000000000003 114.06099999999999Q131.68800000000002 114.06099999999999 131.68800000000002 115.336Q131.68800000000002 115.472 131.68800000000002 115.625L131.65400000000002 116.815Q131.63700000000003 117.376 131.63700000000003 117.92L131.89200000000002 121.762Q131.89200000000002 122.187 131.025 122.187Q130.97400000000002 122.187 130.7785 122.187Q130.58300000000003 122.187 130.50650000000002 122.03399999999999Q130.43 121.881 130.48950000000002 121.66Q130.549 121.439 130.447 121.167Q129.66500000000002 122.0 128.37300000000002 122.0Q125.97600000000001 122.0 125.97600000000001 118.294Q125.97600000000001 116.237 126.74950000000001 115.18299999999999Q127.52300000000001 114.129 128.96800000000002 114.129Q129.64800000000002 114.129 130.328 114.367Q130.549 114.06099999999999 130.94000000000003 114.06099999999999ZM129.17200000000003 115.608Q128.203 115.608 127.727 116.16900000000001Q127.25100000000002 116.73 127.25100000000002 118.226Q127.25100000000002 120.742 128.61100000000002 120.742Q128.96800000000002 120.742 129.4015 120.41900000000001Q129.835 120.096 130.00500000000002 119.688Q130.328 118.77 130.328 117.68199999999999Q130.328 116.594 130.0645 116.101Q129.80100000000002 115.608 129.17200000000003 115.608Z M133.541 109.964Q134.272 109.964 134.272 110.559Q134.272 111.018 134.19549999999998 112.956Q134.119 114.894 134.119 116.424Q134.119 117.954 134.238 118.889Q134.442 120.521 134.816 120.521Q135.19 120.521 135.377 119.994Q135.46200000000002 119.79 135.649 119.6285Q135.836 119.467 136.125 119.467Q136.72 119.467 136.72 120.47Q136.72 121.014 136.1335 121.5495Q135.547 122.085 134.969 122.085Q134.391 122.085 134.04250000000002 121.8895Q133.69400000000002 121.694 133.4815 121.303Q133.269 120.912 133.1415 120.54650000000001Q133.014 120.181 132.963 119.654Q132.861 118.804 132.8185 116.9255Q132.776 115.047 132.776 113.3385Q132.776 111.63 132.8185 110.9925Q132.861 110.355 133.02249999999998 110.15950000000001Q133.184 109.964 133.541 109.964Z M142.126 114.06099999999999Q142.874 114.06099999999999 142.874 115.336Q142.874 115.472 142.874 115.625L142.84 116.815Q142.823 117.376 142.823 117.92L143.078 121.762Q143.078 122.187 142.21099999999998 122.187Q142.16 122.187 141.9645 122.187Q141.769 122.187 141.6925 122.03399999999999Q141.61599999999999 121.881 141.6755 121.66Q141.73499999999999 121.439 141.63299999999998 121.167Q140.851 122.0 139.559 122.0Q137.162 122.0 137.162 118.294Q137.162 116.237 137.9355 115.18299999999999Q138.709 114.129 140.154 114.129Q140.834 114.129 141.51399999999998 114.367Q141.73499999999999 114.06099999999999 142.126 114.06099999999999ZM140.358 115.608Q139.38899999999998 115.608 138.91299999999998 116.16900000000001Q138.43699999999998 116.73 138.43699999999998 118.226Q138.43699999999998 120.742 139.797 120.742Q140.154 120.742 140.58749999999998 120.41900000000001Q141.021 120.096 141.191 119.688Q141.51399999999998 118.77 141.51399999999998 117.68199999999999Q141.51399999999998 116.594 141.2505 116.101Q140.987 115.608 140.358 115.608Z M144.081 110.508Q144.081 109.828 144.93099999999998 109.828Q145.32199999999997 109.828 145.39 110.304V112.854Q145.39 113.568 145.40699999999998 114.282Q145.74699999999999 114.18 146.27399999999997 114.18Q147.92299999999997 114.18 148.82399999999998 115.285Q149.725 116.39 149.725 118.056Q149.725 119.722 148.6625 120.86949999999999Q147.6 122.017 145.93399999999997 122.017Q144.26799999999997 122.017 144.26799999999997 121.0735Q144.26799999999997 120.13 144.17449999999997 116.2795Q144.081 112.429 144.081 110.508ZM147.515 115.982Q146.903 115.506 146.22299999999998 115.506Q145.849 115.506 145.45799999999997 115.642Q145.55999999999997 117.036 145.55999999999997 120.589Q145.849 120.691 146.15499999999997 120.691Q146.81799999999998 120.691 147.481 120.198Q148.46699999999998 119.518 148.46699999999998 118.1155Q148.46699999999998 116.713 147.515 115.982Z M151.73099999999997 109.964Q152.46199999999996 109.964 152.46199999999996 110.559Q152.46199999999996 111.018 152.38549999999998 112.956Q152.30899999999997 114.894 152.30899999999997 116.424Q152.30899999999997 117.954 152.42799999999997 118.889Q152.63199999999998 120.521 153.00599999999997 120.521Q153.37999999999997 120.521 153.56699999999998 119.994Q153.652 119.79 153.839 119.6285Q154.02599999999998 119.467 154.31499999999997 119.467Q154.90999999999997 119.467 154.90999999999997 120.47Q154.90999999999997 121.014 154.32349999999997 121.5495Q153.73699999999997 122.085 153.15899999999996 122.085Q152.58099999999996 122.085 152.23249999999996 121.8895Q151.884 121.694 151.67149999999998 121.303Q151.45899999999997 120.912 151.33149999999998 120.54650000000001Q151.20399999999998 120.181 151.15299999999996 119.654Q151.05099999999996 118.804 151.00849999999997 116.9255Q150.96599999999998 115.047 150.96599999999998 113.3385Q150.96599999999998 111.63 151.00849999999997 110.9925Q151.05099999999996 110.355 151.21249999999998 110.15950000000001Q151.37399999999997 109.964 151.73099999999997 109.964Z M158.02099999999996 114.129Q158.92199999999997 114.129 159.73799999999997 114.656Q160.55399999999997 115.18299999999999 160.55399999999997 115.9565Q160.55399999999997 116.73 159.89099999999996 117.4525Q159.22799999999995 118.175 158.12299999999996 118.328Q157.64699999999996 118.396 156.69499999999996 118.396Q156.88199999999998 119.841 157.42599999999996 120.3Q157.59599999999998 120.487 157.88499999999996 120.487Q158.93899999999996 120.487 159.65299999999996 119.8155Q160.36699999999996 119.144 160.67299999999997 119.144Q160.80899999999997 119.144 161.08099999999996 119.399Q161.35299999999995 119.654 161.35299999999995 119.875Q161.35299999999995 120.317 160.28199999999995 121.15Q159.80599999999995 121.541 159.13449999999995 121.80449999999999Q158.46299999999997 122.068 157.88499999999996 122.068Q156.40599999999998 122.068 155.70899999999997 120.164Q155.26699999999997 118.991 155.26699999999997 117.58Q155.26699999999997 116.169 155.92999999999995 115.149Q156.59299999999996 114.129 158.02099999999996 114.129ZM158.10599999999997 115.30199999999999Q157.45999999999995 115.30199999999999 157.00099999999998 116.033Q156.83099999999996 116.288 156.67799999999997 117.189Q159.05799999999996 117.189 159.05799999999996 116.016Q159.05799999999996 115.30199999999999 158.10599999999997 115.30199999999999Z M167.37099999999995 111.256Q167.67699999999996 111.256 167.94899999999996 111.545Q168.22099999999995 111.834 168.22099999999995 112.1485Q168.22099999999995 112.463 167.92349999999993 112.786Q167.62599999999995 113.109 167.30299999999994 113.109Q166.97999999999996 113.109 166.71649999999994 112.83699999999999Q166.45299999999995 112.565 166.45299999999995 112.14Q166.45299999999995 111.324 167.33699999999996 111.256Q167.35399999999996 111.256 167.37099999999995 111.256ZM168.08499999999995 120.164 168.10199999999995 121.354Q168.10199999999995 121.677 167.84699999999995 121.8895Q167.59199999999996 122.102 167.30299999999994 122.102Q166.87799999999996 122.102 166.86099999999996 121.677Q166.63999999999996 116.254 166.63999999999996 115.676Q166.63999999999996 115.098 166.69099999999995 114.265Q166.72499999999997 113.959 167.08199999999997 113.959Q167.98299999999995 113.959 168.10199999999995 114.69Q168.15299999999996 115.064 168.15299999999996 115.285L168.08499999999995 116.356Z M170.70299999999995 121.473 170.51599999999993 114.571Q170.51599999999993 114.248 170.73699999999994 114.04400000000001Q170.95799999999994 113.84 171.17899999999995 113.84Q171.72299999999996 113.84 171.80799999999994 114.299Q171.87599999999995 114.758 171.87599999999995 115.251Q172.79399999999995 114.044 174.17099999999994 114.044Q176.27899999999994 114.044 176.27899999999994 118.855Q176.27899999999994 119.297 176.27899999999994 120.1895Q176.27899999999994 121.082 176.17699999999994 121.49Q176.05799999999994 122.0 175.44599999999994 122.0Q175.03799999999995 122.0 175.03799999999995 121.456L175.05499999999995 120.504Q175.05499999999995 118.532 174.92749999999995 117.8095Q174.79999999999995 117.087 174.68099999999995 116.662Q174.39199999999994 115.744 173.74599999999995 115.744Q172.89599999999996 115.744 172.55599999999995 116.356Q172.18199999999993 117.019 172.11399999999995 117.92Q171.99499999999995 119.501 171.99499999999995 121.269Q171.99499999999995 121.609 171.73999999999995 121.81299999999999Q171.48499999999996 122.017 171.12799999999996 122.017Q170.70299999999995 122.017 170.70299999999995 121.473Z M182.55199999999994 111.477Q182.44999999999993 111.477 181.97399999999993 111.2985Q181.49799999999993 111.12 181.36199999999994 111.12Q180.76699999999994 111.12 180.64799999999994 111.834Q180.61399999999995 112.089 180.61399999999995 112.87950000000001Q180.61399999999995 113.67 180.61399999999995 114.18H181.80399999999995Q182.55199999999994 114.214 182.55199999999994 114.707Q182.55199999999994 115.42099999999999 181.53199999999995 115.455Q181.37899999999993 115.472 181.15799999999996 115.472Q180.93699999999995 115.472 180.64799999999994 115.455Q180.68199999999993 116.135 180.80099999999993 117.8775Q180.91999999999993 119.62 180.91999999999993 121.269Q180.91999999999993 121.609 180.64799999999994 121.81299999999999Q180.37599999999995 122.017 180.08699999999993 122.017Q179.62799999999993 122.017 179.62799999999993 121.473Q179.62799999999993 119.943 179.50899999999993 118.49799999999999Q179.38999999999993 117.053 179.33899999999994 115.455Q177.80899999999994 115.455 177.55399999999995 115.149Q177.45199999999994 115.03 177.45199999999994 114.843Q177.45199999999994 114.401 177.81749999999994 114.265Q178.18299999999994 114.129 178.65899999999993 114.129Q179.13499999999993 114.129 179.33899999999994 114.129Q179.38999999999993 111.358 179.64499999999995 110.695Q179.79799999999994 110.287 180.06149999999994 110.0915Q180.32499999999993 109.896 180.52049999999994 109.87049999999999Q180.71599999999995 109.845 181.42149999999995 109.845Q182.12699999999995 109.845 182.58599999999996 110.049Q183.04499999999993 110.253 183.04499999999993 110.86500000000001Q183.04499999999993 111.477 182.55199999999994 111.477Z M186.03699999999995 119.518 186.05399999999995 121.269Q186.05399999999995 121.575 185.77349999999996 121.83Q185.49299999999994 122.085 185.22099999999995 122.085Q184.82999999999996 122.085 184.72799999999995 121.473Q184.71099999999996 121.337 184.59199999999996 118.9825Q184.47299999999996 116.628 184.13299999999995 115.285Q183.97999999999996 114.639 183.97999999999996 114.52Q183.97999999999996 113.959 184.65999999999994 113.959Q184.94899999999996 113.959 185.11899999999997 114.18Q185.28899999999996 114.401 185.33149999999995 114.6305Q185.37399999999994 114.86 185.40799999999996 115.251Q185.44199999999995 115.642 185.45899999999995 115.744Q185.81599999999995 114.894 186.52999999999994 114.469Q187.24399999999994 114.044 188.09399999999994 114.044Q189.48799999999994 114.044 189.48799999999994 114.758Q189.48799999999994 115.115 189.24149999999995 115.32749999999999Q188.99499999999995 115.53999999999999 188.67199999999994 115.53999999999999Q187.22699999999995 115.53999999999999 186.63199999999995 116.458Q186.03699999999995 117.376 186.03699999999995 119.518Z M195.13199999999995 114.06099999999999Q195.87999999999994 114.06099999999999 195.87999999999994 115.336Q195.87999999999994 115.472 195.87999999999994 115.625L195.84599999999995 116.815Q195.82899999999995 117.376 195.82899999999995 117.92L196.08399999999995 121.762Q196.08399999999995 122.187 195.21699999999993 122.187Q195.16599999999994 122.187 194.97049999999996 122.187Q194.77499999999995 122.187 194.69849999999994 122.03399999999999Q194.62199999999993 121.881 194.68149999999991 121.66Q194.74099999999993 121.439 194.63899999999995 121.167Q193.85699999999994 122.0 192.56499999999994 122.0Q190.16799999999995 122.0 190.16799999999995 118.294Q190.16799999999995 116.237 190.94149999999996 115.18299999999999Q191.71499999999995 114.129 193.15999999999994 114.129Q193.83999999999995 114.129 194.51999999999992 114.367Q194.74099999999993 114.06099999999999 195.13199999999995 114.06099999999999ZM193.36399999999995 115.608Q192.39499999999992 115.608 191.91899999999993 116.16900000000001Q191.44299999999993 116.73 191.44299999999993 118.226Q191.44299999999993 120.742 192.80299999999994 120.742Q193.15999999999994 120.742 193.59349999999995 120.41900000000001Q194.02699999999993 120.096 194.19699999999995 119.688Q194.51999999999992 118.77 194.51999999999992 117.68199999999999Q194.51999999999992 116.594 194.25649999999993 116.101Q193.99299999999994 115.608 193.36399999999995 115.608Z M202.39099999999993 115.268Q202.39099999999993 115.557 202.16999999999993 115.727Q201.94899999999993 115.897 201.7874999999999 115.897Q201.62599999999992 115.897 201.5324999999999 115.8885Q201.43899999999994 115.88 200.85249999999994 115.574Q200.26599999999993 115.268 199.7729999999999 115.268Q199.27999999999992 115.268 198.93149999999991 115.5145Q198.5829999999999 115.761 198.5829999999999 116.237Q198.5829999999999 116.713 198.9824999999999 116.985Q199.38199999999992 117.257 200.38499999999993 117.4525Q201.38799999999992 117.648 201.92349999999993 118.005Q202.45899999999992 118.362 202.45899999999992 119.331Q202.45899999999992 120.742 201.71949999999993 121.3285Q200.97999999999993 121.915 199.92599999999993 121.915Q198.87199999999993 121.915 198.13249999999994 121.626Q197.39299999999992 121.337 197.39299999999992 120.759Q197.39299999999992 120.096 198.05599999999993 120.096Q198.2259999999999 120.096 198.80399999999992 120.334Q199.38199999999992 120.572 199.95149999999992 120.572Q200.52099999999993 120.572 200.81849999999991 120.2065Q201.11599999999993 119.841 201.11599999999993 119.365Q201.11599999999993 118.889 200.7249999999999 118.6765Q200.33399999999992 118.464 199.5349999999999 118.328Q198.73599999999993 118.192 198.36199999999994 118.039Q197.34199999999993 117.631 197.34199999999993 116.22Q197.34199999999993 115.217 198.05599999999993 114.622Q198.76999999999992 114.027 199.71349999999993 114.027Q200.65699999999993 114.027 201.52399999999994 114.36699999999999Q202.39099999999993 114.707 202.39099999999993 115.268Z M204.0229999999999 114.06099999999999 204.8729999999999 114.078Q205.16199999999992 114.078 205.1959999999999 114.06099999999999V110.576Q205.2129999999999 110.287 205.4849999999999 110.083Q205.75699999999992 109.879 205.99499999999992 109.879Q206.23299999999992 109.879 206.3774999999999 110.03200000000001Q206.5219999999999 110.185 206.5049999999999 110.50800000000001Q206.48799999999991 110.831 206.48799999999991 114.044L208.47699999999992 113.976Q208.9869999999999 113.976 208.9869999999999 114.571Q208.9869999999999 115.013 208.72349999999992 115.23400000000001Q208.45999999999992 115.455 208.1624999999999 115.47200000000001Q207.86499999999992 115.489 207.5759999999999 115.489L206.5389999999999 115.472Q206.5389999999999 116.169 206.68349999999992 118.226Q206.82799999999992 120.283 206.9129999999999 120.8865Q206.9979999999999 121.49 206.9469999999999 121.6685Q206.8959999999999 121.847 206.7599999999999 121.915Q206.5389999999999 122.017 206.1649999999999 122.017Q205.7909999999999 122.017 205.7229999999999 121.609Q205.38299999999992 119.382 205.26399999999992 115.489Q205.1109999999999 115.506 204.0909999999999 115.506Q203.0709999999999 115.506 203.0709999999999 114.911Q203.0709999999999 114.06099999999999 204.0229999999999 114.06099999999999Z M211.63899999999992 119.518 211.65599999999992 121.269Q211.65599999999992 121.575 211.37549999999993 121.83Q211.0949999999999 122.085 210.82299999999992 122.085Q210.43199999999993 122.085 210.32999999999993 121.473Q210.31299999999993 121.337 210.19399999999993 118.9825Q210.07499999999993 116.628 209.73499999999993 115.285Q209.58199999999994 114.639 209.58199999999994 114.52Q209.58199999999994 113.959 210.26199999999992 113.959Q210.55099999999993 113.959 210.72099999999995 114.18Q210.89099999999993 114.401 210.93349999999992 114.6305Q210.9759999999999 114.86 211.00999999999993 115.251Q211.04399999999993 115.642 211.06099999999992 115.744Q211.41799999999992 114.894 212.13199999999992 114.469Q212.84599999999992 114.044 213.6959999999999 114.044Q215.08999999999992 114.044 215.08999999999992 114.758Q215.08999999999992 115.115 214.84349999999992 115.32749999999999Q214.59699999999992 115.53999999999999 214.27399999999992 115.53999999999999Q212.82899999999992 115.53999999999999 212.23399999999992 116.458Q211.63899999999992 117.376 211.63899999999992 119.518Z M217.2659999999999 114.52Q217.1639999999999 115.846 217.1639999999999 116.9085Q217.1639999999999 117.971 217.41899999999993 119.3395Q217.67399999999992 120.708 217.9799999999999 120.708Q218.4389999999999 120.708 219.1444999999999 120.19800000000001Q219.8499999999999 119.688 220.15599999999992 119.127Q219.9519999999999 116.679 219.9519999999999 114.928Q219.9519999999999 114.571 220.18149999999991 114.316Q220.41099999999992 114.06099999999999 220.73399999999992 114.06099999999999Q221.2609999999999 114.06099999999999 221.2609999999999 114.775Q221.2609999999999 115.982 221.4394999999999 118.362Q221.6179999999999 120.742 221.80499999999992 121.388Q221.8389999999999 121.524 221.8389999999999 121.7025Q221.8389999999999 121.881 221.6094999999999 122.04249999999999Q221.3799999999999 122.204 221.0144999999999 122.204Q220.64899999999992 122.204 220.52999999999992 121.796Q220.49599999999992 121.456 220.3599999999999 120.776Q219.1699999999999 122.017 217.9629999999999 122.017Q217.4019999999999 122.017 216.95999999999992 121.592Q216.51799999999992 121.167 216.26299999999992 120.436Q215.8209999999999 119.025 215.8209999999999 117.784Q215.8209999999999 116.543 215.9569999999999 114.724Q216.02499999999992 114.435 216.24599999999992 114.23949999999999Q216.46699999999993 114.044 216.6964999999999 114.044Q216.9259999999999 114.044 217.05349999999993 114.12899999999999Q217.18099999999993 114.214 217.20649999999992 114.282Q217.2319999999999 114.35 217.2659999999999 114.52Z M227.75499999999994 115.897Q227.63599999999994 115.897 227.10049999999993 115.70150000000001Q226.5649999999999 115.506 226.41199999999992 115.506Q225.42599999999993 115.506 224.72899999999993 116.2285Q224.03199999999993 116.951 224.03199999999993 118.14099999999999Q224.03199999999993 119.331 224.41449999999992 119.9175Q224.7969999999999 120.504 225.7319999999999 120.504Q226.10599999999994 120.504 227.01549999999992 120.07050000000001Q227.92499999999993 119.637 228.14599999999993 119.637Q228.36699999999993 119.637 228.50299999999993 119.773Q228.63899999999992 119.909 228.63899999999992 120.113Q228.63899999999992 120.521 228.12049999999994 120.97149999999999Q227.60199999999992 121.422 226.83699999999993 121.7195Q226.07199999999992 122.017 225.45999999999992 122.017Q224.09999999999994 122.017 223.32649999999992 120.946Q222.5529999999999 119.875 222.5529999999999 118.022Q222.5529999999999 116.883 223.15649999999994 115.94800000000001Q223.75999999999993 115.013 224.69499999999994 114.5455Q225.62999999999994 114.078 226.51399999999992 114.078Q227.3979999999999 114.078 227.93349999999992 114.29050000000001Q228.46899999999994 114.503 228.46899999999994 114.8515Q228.46899999999994 115.2 228.27349999999993 115.5485Q228.07799999999992 115.897 227.75499999999994 115.897Z M229.81199999999993 114.06099999999999 230.66199999999992 114.078Q230.95099999999994 114.078 230.98499999999993 114.06099999999999V110.576Q231.00199999999992 110.287 231.27399999999994 110.083Q231.54599999999994 109.879 231.78399999999993 109.879Q232.02199999999993 109.879 232.16649999999993 110.03200000000001Q232.31099999999992 110.185 232.29399999999993 110.50800000000001Q232.27699999999993 110.831 232.27699999999993 114.044L234.26599999999993 113.976Q234.77599999999993 113.976 234.77599999999993 114.571Q234.77599999999993 115.013 234.51249999999993 115.23400000000001Q234.24899999999994 115.455 233.95149999999995 115.47200000000001Q233.65399999999994 115.489 233.36499999999992 115.489L232.32799999999992 115.472Q232.32799999999992 116.169 232.4724999999999 118.226Q232.61699999999993 120.283 232.70199999999994 120.8865Q232.78699999999992 121.49 232.73599999999993 121.6685Q232.68499999999992 121.847 232.54899999999992 121.915Q232.32799999999992 122.017 231.95399999999992 122.017Q231.57999999999993 122.017 231.51199999999992 121.609Q231.17199999999994 119.382 231.05299999999994 115.489Q230.89999999999992 115.506 229.87999999999994 115.506Q228.85999999999993 115.506 228.85999999999993 114.911Q228.85999999999993 114.06099999999999 229.81199999999993 114.06099999999999Z M236.50999999999993 114.52Q236.40799999999993 115.846 236.40799999999993 116.9085Q236.40799999999993 117.971 236.66299999999995 119.3395Q236.91799999999995 120.708 237.22399999999993 120.708Q237.68299999999994 120.708 238.38849999999994 120.19800000000001Q239.09399999999994 119.688 239.39999999999995 119.127Q239.19599999999994 116.679 239.19599999999994 114.928Q239.19599999999994 114.571 239.42549999999994 114.316Q239.65499999999994 114.06099999999999 239.97799999999995 114.06099999999999Q240.50499999999994 114.06099999999999 240.50499999999994 114.775Q240.50499999999994 115.982 240.68349999999992 118.362Q240.86199999999994 120.742 241.04899999999995 121.388Q241.08299999999994 121.524 241.08299999999994 121.7025Q241.08299999999994 121.881 240.85349999999994 122.04249999999999Q240.62399999999994 122.204 240.25849999999994 122.204Q239.89299999999994 122.204 239.77399999999994 121.796Q239.73999999999995 121.456 239.60399999999993 120.776Q238.41399999999993 122.017 237.20699999999994 122.017Q236.64599999999993 122.017 236.20399999999995 121.592Q235.76199999999994 121.167 235.50699999999995 120.436Q235.06499999999994 119.025 235.06499999999994 117.784Q235.06499999999994 116.543 235.20099999999994 114.724Q235.26899999999995 114.435 235.48999999999995 114.23949999999999Q235.71099999999996 114.044 235.94049999999993 114.044Q236.16999999999993 114.044 236.29749999999996 114.12899999999999Q236.42499999999995 114.214 236.45049999999995 114.282Q236.47599999999994 114.35 236.50999999999993 114.52Z M244.22799999999995 119.518 244.24499999999995 121.269Q244.24499999999995 121.575 243.96449999999993 121.83Q243.68399999999994 122.085 243.41199999999995 122.085Q243.02099999999996 122.085 242.91899999999995 121.473Q242.90199999999996 121.337 242.78299999999996 118.9825Q242.66399999999996 116.628 242.32399999999996 115.285Q242.17099999999996 114.639 242.17099999999996 114.52Q242.17099999999996 113.959 242.85099999999994 113.959Q243.13999999999996 113.959 243.30999999999995 114.18Q243.47999999999996 114.401 243.52249999999995 114.6305Q243.56499999999994 114.86 243.59899999999993 115.251Q243.63299999999995 115.642 243.64999999999995 115.744Q244.00699999999995 114.894 244.72099999999995 114.469Q245.43499999999995 114.044 246.28499999999997 114.044Q247.67899999999995 114.044 247.67899999999995 114.758Q247.67899999999995 115.115 247.43249999999995 115.32749999999999Q247.18599999999995 115.53999999999999 246.86299999999994 115.53999999999999Q245.41799999999995 115.53999999999999 244.82299999999995 116.458Q244.22799999999995 117.376 244.22799999999995 119.518Z M251.02799999999993 114.129Q251.92899999999995 114.129 252.74499999999995 114.656Q253.56099999999995 115.18299999999999 253.56099999999995 115.9565Q253.56099999999995 116.73 252.89799999999994 117.4525Q252.23499999999993 118.175 251.12999999999994 118.328Q250.65399999999994 118.396 249.70199999999994 118.396Q249.88899999999995 119.841 250.43299999999994 120.3Q250.60299999999995 120.487 250.89199999999994 120.487Q251.94599999999994 120.487 252.65999999999994 119.8155Q253.37399999999994 119.144 253.67999999999995 119.144Q253.81599999999995 119.144 254.08799999999994 119.399Q254.35999999999993 119.654 254.35999999999993 119.875Q254.35999999999993 120.317 253.28899999999993 121.15Q252.81299999999993 121.541 252.14149999999995 121.80449999999999Q251.46999999999994 122.068 250.89199999999994 122.068Q249.41299999999995 122.068 248.71599999999995 120.164Q248.27399999999994 118.991 248.27399999999994 117.58Q248.27399999999994 116.169 248.93699999999995 115.149Q249.59999999999994 114.129 251.02799999999993 114.129ZM251.11299999999994 115.30199999999999Q250.46699999999993 115.30199999999999 250.00799999999995 116.033Q249.83799999999994 116.288 249.68499999999995 117.189Q252.06499999999994 117.189 252.06499999999994 116.016Q252.06499999999994 115.30199999999999 251.11299999999994 115.30199999999999Z M260.6839999999999 115.268Q260.6839999999999 115.557 260.4629999999999 115.727Q260.2419999999999 115.897 260.0804999999999 115.897Q259.9189999999999 115.897 259.8254999999999 115.8885Q259.7319999999999 115.88 259.1454999999999 115.574Q258.5589999999999 115.268 258.0659999999999 115.268Q257.5729999999999 115.268 257.2244999999999 115.5145Q256.8759999999999 115.761 256.8759999999999 116.237Q256.8759999999999 116.713 257.27549999999997 116.985Q257.67499999999995 117.257 258.67799999999994 117.4525Q259.6809999999999 117.648 260.21649999999994 118.005Q260.75199999999995 118.362 260.75199999999995 119.331Q260.75199999999995 120.742 260.01249999999993 121.3285Q259.2729999999999 121.915 258.21899999999994 121.915Q257.1649999999999 121.915 256.42549999999994 121.626Q255.68599999999992 121.337 255.68599999999992 120.759Q255.68599999999992 120.096 256.34899999999993 120.096Q256.51899999999995 120.096 257.097 120.334Q257.67499999999995 120.572 258.2444999999999 120.572Q258.8139999999999 120.572 259.1114999999999 120.2065Q259.40899999999993 119.841 259.40899999999993 119.365Q259.40899999999993 118.889 259.0179999999999 118.6765Q258.62699999999995 118.464 257.828 118.328Q257.02899999999994 118.192 256.6549999999999 118.039Q255.63499999999993 117.631 255.63499999999993 116.22Q255.63499999999993 115.217 256.34899999999993 114.622Q257.06299999999993 114.027 258.00649999999996 114.027Q258.94999999999993 114.027 259.8169999999999 114.36699999999999Q260.6839999999999 114.707 260.6839999999999 115.268Z M264.03299999999996 110.304 263.87999999999994 116.101Q263.87999999999994 117.036 263.89699999999993 117.325Q263.82899999999995 117.54599999999999 263.6334999999999 117.716Q263.43799999999993 117.886 263.19999999999993 117.886Q262.96199999999993 117.886 262.80899999999997 117.512Q262.554 113.228 262.554 110.304Q262.70699999999994 109.879 263.33599999999996 109.879Q263.965 109.879 264.03299999999996 110.304ZM264.23699999999997 120.572Q264.23699999999997 121.473 263.489 121.473Q263.11499999999995 121.473 262.85999999999996 121.1755Q262.60499999999996 120.878 262.60499999999996 120.572Q262.60499999999996 120.266 262.84299999999996 120.011Q263.08099999999996 119.756 263.48049999999995 119.756Q263.87999999999994 119.756 264.0585 119.90899999999999Q264.23699999999997 120.062 264.23699999999997 120.572Z" fill="#ff4d8d"/>

  <!-- Decorative spiral top-right -->
  <path d="M770 30 C770 18,782 10,790 18 C798 26,790 42,778 42 C762 42,750 30,750 18 C750 0,766 -12,782 -12"
        stroke="#2a2a2a" stroke-width="1.5" fill="none" stroke-linecap="round" opacity="0.12" filter="url(#hd)"/>

  <!-- Pink dots -->
  <circle cx="740" cy="70" r="2" fill="#ff4d8d" opacity="0.4" filter="url(#hd)"/>
  <circle cx="755" cy="58" r="1.5" fill="#ff4d8d" opacity="0.3" filter="url(#hd)"/>
  <circle cx="762" cy="82" r="1.5" fill="#ff4d8d" opacity="0.3" filter="url(#hd)"/>
</svg>